<svg xmlns="http://www.w3.org/2000/svg" xmlns:xlink="http://www.w3.org/1999/xlink" width="144" zoomAndPan="magnify" viewBox="0 0 108 107.999999" height="144" preserveAspectRatio="xMidYMid meet" version="1.0"><defs><g/><clipPath id="a715c9b13a"><path d="M 2.457031 1.050781 L 105.542969 1.050781 L 105.542969 107.5 L 2.457031 107.5 Z M 2.457031 1.050781 " clip-rule="nonzero"/></clipPath><clipPath id="d8e1f5e762"><path d="M 105.351562 89.890625 C 105.351562 99.570312 97.503906 107.394531 87.847656 107.394531 L 20.152344 107.394531 C 10.472656 107.394531 2.648438 99.546875 2.648438 89.890625 L 2.648438 18.746094 C 2.648438 9.066406 10.496094 1.242188 20.152344 1.242188 L 87.847656 1.242188 C 97.527344 1.242188 105.351562 9.089844 105.351562 18.746094 Z M 105.351562 89.890625 " clip-rule="nonzero"/></clipPath><clipPath id="9260c82d68"><path d="M 1.40625 0 L 106.59375 0 L 106.59375 108 L 1.40625 108 Z M 1.40625 0 " clip-rule="nonzero"/></clipPath><clipPath id="0827805527"><path d="M 87.847656 108.636719 L 20.152344 108.636719 C 9.820312 108.636719 1.40625 100.222656 1.40625 89.890625 L 1.40625 18.746094 C 1.40625 8.414062 9.820312 0 20.152344 0 L 87.847656 0 C 98.179688 0 106.59375 8.414062 106.59375 18.746094 L 106.59375 89.871094 C 106.59375 100.222656 98.179688 108.636719 87.847656 108.636719 Z M 20.152344 2.480469 C 11.1875 2.480469 3.890625 9.78125 3.890625 18.746094 L 3.890625 89.871094 C 3.890625 98.832031 11.1875 106.132812 20.152344 106.132812 L 87.847656 106.132812 C 96.8125 106.132812 104.109375 98.832031 104.109375 89.871094 L 104.109375 18.746094 C 104.109375 9.78125 96.8125 2.480469 87.847656 2.480469 Z M 20.152344 2.480469 " clip-rule="nonzero"/></clipPath><clipPath id="81b25f957c"><path d="M 30 19.203125 L 78.605469 19.203125 L 78.605469 66.453125 L 30 66.453125 Z M 30 19.203125 " clip-rule="nonzero"/></clipPath></defs><g clip-path="url(#a715c9b13a)"><g clip-path="url(#d8e1f5e762)"><path fill="#001950" d="M 1.40625 0 L 106.59375 0 L 106.59375 108.550781 L 1.40625 108.550781 Z M 1.40625 0 " fill-opacity="1" fill-rule="nonzero"/></g></g><g clip-path="url(#9260c82d68)"><g clip-path="url(#0827805527)"><path fill="#fd4b09" d="M 1.40625 0 L 106.59375 0 L 106.59375 108.550781 L 1.40625 108.550781 Z M 1.40625 0 " fill-opacity="1" fill-rule="nonzero"/></g></g><g clip-path="url(#81b25f957c)"><path fill="#fd4b09" d="M 31.179688 32.183594 C 33.179688 24.332031 39.808594 19.277344 47.8125 19.273438 C 57.078125 19.265625 66.347656 19.269531 75.613281 19.269531 L 71.980469 25.75 C 63.921875 25.734375 55.863281 25.738281 47.804688 25.746094 C 45.144531 25.746094 42.75 26.535156 40.730469 28.328125 C 37.585938 31.117188 36.632812 34.738281 37.050781 38.800781 C 37.527344 43.503906 40.574219 47.457031 44.734375 48.464844 C 46.5 48.898438 48.398438 48.726562 50.222656 48.914062 C 51.257812 49.023438 51.785156 48.585938 52.273438 47.710938 C 55.640625 41.710938 59.058594 35.734375 62.464844 29.757812 C 63.085938 28.664062 63.761719 28.652344 64.375 29.726562 C 65.277344 31.308594 66.183594 32.894531 67.085938 34.476562 C 70.902344 41.175781 74.71875 47.871094 78.53125 54.574219 C 78.648438 54.78125 78.726562 55.007812 78.886719 55.371094 L 77.851562 55.371094 C 70.6875 55.371094 63.523438 55.386719 56.359375 55.347656 C 55.835938 55.339844 55.472656 55.453125 55.179688 55.710938 C 54.992188 55.871094 54.839844 56.082031 54.683594 56.359375 C 52.8125 59.710938 50.898438 63.035156 49.015625 66.382812 L 41.601562 66.382812 C 42.488281 64.824219 43.335938 63.34375 44.175781 61.867188 C 45.371094 59.765625 46.5625 57.664062 47.746094 55.574219 C 47.601562 55.460938 47.558594 55.394531 47.507812 55.390625 C 47.292969 55.371094 47.070312 55.363281 46.851562 55.355469 C 43.578125 55.21875 40.609375 54.179688 37.914062 52.300781 C 31.261719 47.675781 29.390625 39.226562 31.179688 32.183594 Z M 67.859375 48.820312 C 66.378906 46.21875 64.949219 43.707031 63.4375 41.046875 C 62.582031 42.546875 61.761719 43.996094 60.929688 45.457031 C 60.296875 46.566406 59.667969 47.679688 59.019531 48.820312 Z M 67.859375 48.820312 " fill-opacity="1" fill-rule="nonzero"/></g><g fill="#ffffff" fill-opacity="1"><g transform="translate(28.185038, 83.996503)"><g><path d="M 4.875 -5.84375 C 4.632812 -5.96875 4.359375 -6.0625 4.046875 -6.125 C 3.734375 -6.195312 3.472656 -6.234375 3.265625 -6.234375 C 2.671875 -6.234375 2.148438 -6.097656 1.703125 -5.828125 C 1.265625 -5.554688 0.921875 -5.175781 0.671875 -4.6875 C 0.429688 -4.207031 0.3125 -3.65625 0.3125 -3.03125 C 0.3125 -2.425781 0.421875 -1.882812 0.640625 -1.40625 C 0.867188 -0.9375 1.203125 -0.5625 1.640625 -0.28125 C 2.078125 -0.0078125 2.601562 0.125 3.21875 0.125 C 3.476562 0.125 3.769531 0.0859375 4.09375 0.015625 C 4.425781 -0.0546875 4.707031 -0.148438 4.9375 -0.265625 L 4.484375 -1.125 C 4.035156 -0.945312 3.59375 -0.859375 3.15625 -0.859375 C 2.820312 -0.859375 2.53125 -0.953125 2.28125 -1.140625 C 2.03125 -1.335938 1.84375 -1.601562 1.71875 -1.9375 C 1.59375 -2.269531 1.53125 -2.632812 1.53125 -3.03125 C 1.53125 -3.476562 1.601562 -3.867188 1.75 -4.203125 C 1.894531 -4.546875 2.09375 -4.804688 2.34375 -4.984375 C 2.601562 -5.160156 2.894531 -5.25 3.21875 -5.25 C 3.425781 -5.25 3.597656 -5.234375 3.734375 -5.203125 C 3.867188 -5.179688 4.054688 -5.132812 4.296875 -5.0625 L 4.515625 -5 Z M 4.875 -5.84375 "/></g></g></g><g fill="#ffffff" fill-opacity="1"><g transform="translate(33.25358, 83.996503)"><g><path d="M 4.328125 -6.109375 L 4.328125 -3.515625 L 1.921875 -3.515625 L 1.921875 -6.15625 L 0.765625 -6.109375 L 0.765625 0 L 1.921875 0 L 1.921875 -2.59375 L 4.328125 -2.59375 L 4.328125 0 L 5.484375 0 L 5.484375 -6.109375 Z M 4.328125 -6.109375 "/></g></g></g><g fill="#ffffff" fill-opacity="1"><g transform="translate(39.508375, 83.996503)"><g><path d="M 1.921875 0 L 1.921875 -2.3125 L 3.015625 -2.3125 L 4.3125 0 L 5.546875 0 L 4.046875 -2.625 C 4.367188 -2.78125 4.625 -2.992188 4.8125 -3.265625 C 5 -3.546875 5.09375 -3.867188 5.09375 -4.234375 C 5.09375 -4.835938 4.863281 -5.300781 4.40625 -5.625 C 3.957031 -5.945312 3.378906 -6.109375 2.671875 -6.109375 L 0.765625 -6.109375 L 0.765625 0 Z M 2.640625 -5.140625 C 3.453125 -5.140625 3.859375 -4.816406 3.859375 -4.171875 C 3.859375 -3.859375 3.75 -3.628906 3.53125 -3.484375 C 3.3125 -3.335938 3.019531 -3.265625 2.65625 -3.265625 L 1.921875 -3.265625 L 1.921875 -5.140625 Z M 2.640625 -5.140625 "/></g></g></g><g fill="#ffffff" fill-opacity="1"><g transform="translate(45.152071, 83.996503)"><g><path d="M 0.765625 -6.109375 L 0.765625 0 L 1.921875 0 L 1.921875 -6.109375 Z M 0.765625 -6.109375 "/></g></g></g><g fill="#ffffff" fill-opacity="1"><g transform="translate(47.83912, 83.996503)"><g><path d="M 0.421875 -0.40625 C 0.628906 -0.28125 0.914062 -0.160156 1.28125 -0.046875 C 1.65625 0.0546875 1.972656 0.109375 2.234375 0.109375 C 2.710938 0.109375 3.125 0.0390625 3.46875 -0.09375 C 3.8125 -0.238281 4.070312 -0.4375 4.25 -0.6875 C 4.425781 -0.9375 4.515625 -1.226562 4.515625 -1.5625 C 4.515625 -1.851562 4.441406 -2.109375 4.296875 -2.328125 C 4.160156 -2.546875 3.984375 -2.734375 3.765625 -2.890625 C 3.554688 -3.046875 3.273438 -3.222656 2.921875 -3.421875 L 2.671875 -3.578125 L 2.375 -3.734375 C 2.070312 -3.910156 1.851562 -4.054688 1.71875 -4.171875 C 1.582031 -4.296875 1.515625 -4.445312 1.515625 -4.625 C 1.515625 -4.820312 1.597656 -4.972656 1.765625 -5.078125 C 1.941406 -5.179688 2.164062 -5.234375 2.4375 -5.234375 C 2.664062 -5.234375 2.878906 -5.203125 3.078125 -5.140625 C 3.285156 -5.078125 3.507812 -4.984375 3.75 -4.859375 L 4.140625 -5.796875 C 3.503906 -6.097656 2.929688 -6.25 2.421875 -6.25 C 1.984375 -6.25 1.601562 -6.175781 1.28125 -6.03125 C 0.96875 -5.894531 0.726562 -5.703125 0.5625 -5.453125 C 0.394531 -5.203125 0.3125 -4.925781 0.3125 -4.625 C 0.3125 -4.320312 0.394531 -4.050781 0.5625 -3.8125 C 0.738281 -3.582031 0.941406 -3.378906 1.171875 -3.203125 C 1.410156 -3.035156 1.734375 -2.832031 2.140625 -2.59375 L 2.40625 -2.421875 C 2.707031 -2.253906 2.929688 -2.109375 3.078125 -1.984375 C 3.234375 -1.867188 3.3125 -1.734375 3.3125 -1.578125 C 3.3125 -1.359375 3.21875 -1.191406 3.03125 -1.078125 C 2.84375 -0.972656 2.566406 -0.921875 2.203125 -0.921875 C 1.972656 -0.921875 1.71875 -0.960938 1.4375 -1.046875 C 1.15625 -1.128906 0.90625 -1.226562 0.6875 -1.34375 Z M 0.421875 -0.40625 "/></g></g></g><g fill="#ffffff" fill-opacity="1"><g transform="translate(52.575152, 83.996503)"><g><path d="M 0.09375 -5.1875 L 1.953125 -5.1875 L 1.953125 0 L 3.125 0 L 3.125 -5.1875 L 5.21875 -5.1875 L 5.03125 -6.109375 L 0.09375 -6.109375 Z M 0.09375 -5.1875 "/></g></g></g><g fill="#ffffff" fill-opacity="1"><g transform="translate(57.886337, 83.996503)"><g><path d="M 0.765625 -6.109375 L 0.765625 0 L 1.921875 0 L 1.921875 -6.109375 Z M 0.765625 -6.109375 "/></g></g></g><g fill="#ffffff" fill-opacity="1"><g transform="translate(60.573386, 83.996503)"><g><path d="M 1.25 0 L 1.796875 -1.4375 L 4.109375 -1.4375 L 4.65625 0.09375 L 5.828125 -0.078125 L 3.453125 -6.109375 L 2.46875 -6.109375 L 0.09375 0 Z M 2.9375 -4.515625 L 3.75 -2.375 L 2.140625 -2.375 Z M 2.9375 -4.515625 "/></g></g></g><g fill="#ffffff" fill-opacity="1"><g transform="translate(66.49567, 83.996503)"><g><path d="M 4.75 0 L 5.921875 0 L 5.921875 -6.109375 L 4.75 -6.109375 L 4.75 -2.03125 L 1.921875 -6.109375 L 0.765625 -6.109375 L 0.765625 0 L 1.921875 0 L 1.921875 -4.09375 Z M 4.75 0 "/></g></g></g><g fill="#ffffff" fill-opacity="1"><g transform="translate(73.181833, 83.996503)"><g><path d="M 0.9375 -6.671875 C 0.757812 -6.671875 0.601562 -6.597656 0.46875 -6.453125 C 0.34375 -6.316406 0.28125 -6.164062 0.28125 -6 C 0.28125 -5.84375 0.335938 -5.695312 0.453125 -5.5625 C 0.566406 -5.425781 0.675781 -5.359375 0.78125 -5.359375 C 0.75 -5.191406 0.6875 -5.050781 0.59375 -4.9375 C 0.507812 -4.832031 0.367188 -4.695312 0.171875 -4.53125 L 0.4375 -3.984375 C 0.769531 -4.171875 1.046875 -4.445312 1.265625 -4.8125 C 1.492188 -5.175781 1.609375 -5.523438 1.609375 -5.859375 C 1.609375 -6.097656 1.539062 -6.289062 1.40625 -6.4375 C 1.28125 -6.59375 1.125 -6.671875 0.9375 -6.671875 Z M 0.9375 -6.671875 "/></g></g></g><g fill="#ffffff" fill-opacity="1"><g transform="translate(75.069058, 83.996503)"><g><path d="M 0.421875 -0.40625 C 0.628906 -0.28125 0.914062 -0.160156 1.28125 -0.046875 C 1.65625 0.0546875 1.972656 0.109375 2.234375 0.109375 C 2.710938 0.109375 3.125 0.0390625 3.46875 -0.09375 C 3.8125 -0.238281 4.070312 -0.4375 4.25 -0.6875 C 4.425781 -0.9375 4.515625 -1.226562 4.515625 -1.5625 C 4.515625 -1.851562 4.441406 -2.109375 4.296875 -2.328125 C 4.160156 -2.546875 3.984375 -2.734375 3.765625 -2.890625 C 3.554688 -3.046875 3.273438 -3.222656 2.921875 -3.421875 L 2.671875 -3.578125 L 2.375 -3.734375 C 2.070312 -3.910156 1.851562 -4.054688 1.71875 -4.171875 C 1.582031 -4.296875 1.515625 -4.445312 1.515625 -4.625 C 1.515625 -4.820312 1.597656 -4.972656 1.765625 -5.078125 C 1.941406 -5.179688 2.164062 -5.234375 2.4375 -5.234375 C 2.664062 -5.234375 2.878906 -5.203125 3.078125 -5.140625 C 3.285156 -5.078125 3.507812 -4.984375 3.75 -4.859375 L 4.140625 -5.796875 C 3.503906 -6.097656 2.929688 -6.25 2.421875 -6.25 C 1.984375 -6.25 1.601562 -6.175781 1.28125 -6.03125 C 0.96875 -5.894531 0.726562 -5.703125 0.5625 -5.453125 C 0.394531 -5.203125 0.3125 -4.925781 0.3125 -4.625 C 0.3125 -4.320312 0.394531 -4.050781 0.5625 -3.8125 C 0.738281 -3.582031 0.941406 -3.378906 1.171875 -3.203125 C 1.410156 -3.035156 1.734375 -2.832031 2.140625 -2.59375 L 2.40625 -2.421875 C 2.707031 -2.253906 2.929688 -2.109375 3.078125 -1.984375 C 3.234375 -1.867188 3.3125 -1.734375 3.3125 -1.578125 C 3.3125 -1.359375 3.21875 -1.191406 3.03125 -1.078125 C 2.84375 -0.972656 2.566406 -0.921875 2.203125 -0.921875 C 1.972656 -0.921875 1.71875 -0.960938 1.4375 -1.046875 C 1.15625 -1.128906 0.90625 -1.226562 0.6875 -1.34375 Z M 0.421875 -0.40625 "/></g></g></g><g fill="#ffffff" fill-opacity="1"><g transform="translate(43.423905, 89.863357)"><g><path d="M 0.953125 -0.78125 C 1.117188 -0.78125 1.269531 -0.804688 1.40625 -0.859375 C 1.550781 -0.921875 1.664062 -1.003906 1.75 -1.109375 C 1.832031 -1.222656 1.875 -1.363281 1.875 -1.53125 C 1.875 -1.769531 1.789062 -1.945312 1.625 -2.0625 C 1.46875 -2.1875 1.253906 -2.25 0.984375 -2.25 L 0.28125 -2.25 L 0.28125 0 L 0.703125 0 L 0.703125 -0.78125 Z M 0.96875 -1.890625 C 1.125 -1.890625 1.238281 -1.859375 1.3125 -1.796875 C 1.382812 -1.742188 1.421875 -1.644531 1.421875 -1.5 C 1.410156 -1.382812 1.363281 -1.296875 1.28125 -1.234375 C 1.207031 -1.171875 1.109375 -1.140625 0.984375 -1.140625 L 0.703125 -1.140625 L 0.703125 -1.890625 Z M 0.96875 -1.890625 "/></g></g></g><g fill="#ffffff" fill-opacity="1"><g transform="translate(45.386401, 89.863357)"><g><path d="M 0.46875 0 L 0.65625 -0.53125 L 1.515625 -0.53125 L 1.71875 0.03125 L 2.15625 -0.03125 L 1.28125 -2.25 L 0.90625 -2.25 L 0.03125 0 Z M 1.078125 -1.65625 L 1.390625 -0.875 L 0.78125 -0.875 Z M 1.078125 -1.65625 "/></g></g></g><g fill="#ffffff" fill-opacity="1"><g transform="translate(47.571003, 89.863357)"><g><path d="M 1.984375 -2.25 L 1.53125 -2.25 L 0.984375 -1.3125 L 0.453125 -2.296875 L 0.03125 -2.171875 L 0.765625 -0.875 L 0.765625 0 L 1.203125 0 L 1.203125 -0.859375 Z M 1.984375 -2.25 "/></g></g></g><g fill="#ffffff" fill-opacity="1"><g transform="translate(49.586539, 89.863357)"><g><path d="M 0.703125 0 L 0.703125 -0.859375 L 1.109375 -0.859375 L 1.59375 0 L 2.046875 0 L 1.5 -0.96875 C 1.613281 -1.019531 1.703125 -1.097656 1.765625 -1.203125 C 1.835938 -1.304688 1.875 -1.425781 1.875 -1.5625 C 1.875 -1.78125 1.789062 -1.945312 1.625 -2.0625 C 1.457031 -2.1875 1.242188 -2.25 0.984375 -2.25 L 0.28125 -2.25 L 0.28125 0 Z M 0.96875 -1.890625 C 1.269531 -1.890625 1.421875 -1.773438 1.421875 -1.546875 C 1.421875 -1.429688 1.378906 -1.34375 1.296875 -1.28125 C 1.222656 -1.226562 1.117188 -1.203125 0.984375 -1.203125 L 0.703125 -1.203125 L 0.703125 -1.890625 Z M 0.96875 -1.890625 "/></g></g></g><g fill="#ffffff" fill-opacity="1"><g transform="translate(51.668375, 89.863357)"><g><path d="M 1.21875 -2.3125 C 1 -2.300781 0.804688 -2.242188 0.640625 -2.140625 C 0.472656 -2.046875 0.34375 -1.90625 0.25 -1.71875 C 0.15625 -1.539062 0.109375 -1.335938 0.109375 -1.109375 C 0.109375 -0.890625 0.148438 -0.691406 0.234375 -0.515625 C 0.328125 -0.347656 0.457031 -0.210938 0.625 -0.109375 C 0.789062 -0.00390625 0.988281 0.046875 1.21875 0.046875 C 1.4375 0.046875 1.628906 -0.00390625 1.796875 -0.109375 C 1.960938 -0.210938 2.09375 -0.351562 2.1875 -0.53125 C 2.28125 -0.707031 2.328125 -0.910156 2.328125 -1.140625 C 2.328125 -1.359375 2.28125 -1.554688 2.1875 -1.734375 C 2.101562 -1.910156 1.976562 -2.050781 1.8125 -2.15625 C 1.644531 -2.257812 1.445312 -2.3125 1.21875 -2.3125 Z M 0.5625 -1.125 C 0.5625 -1.28125 0.59375 -1.421875 0.65625 -1.546875 C 0.71875 -1.671875 0.796875 -1.765625 0.890625 -1.828125 C 0.992188 -1.898438 1.101562 -1.9375 1.21875 -1.9375 C 1.351562 -1.9375 1.46875 -1.898438 1.5625 -1.828125 C 1.664062 -1.765625 1.742188 -1.671875 1.796875 -1.546875 C 1.847656 -1.429688 1.875 -1.296875 1.875 -1.140625 C 1.875 -0.960938 1.84375 -0.8125 1.78125 -0.6875 C 1.726562 -0.5625 1.648438 -0.46875 1.546875 -0.40625 C 1.453125 -0.34375 1.34375 -0.3125 1.21875 -0.3125 C 1.082031 -0.3125 0.960938 -0.34375 0.859375 -0.40625 C 0.765625 -0.476562 0.691406 -0.578125 0.640625 -0.703125 C 0.585938 -0.828125 0.5625 -0.96875 0.5625 -1.125 Z M 0.5625 -1.125 "/></g></g></g><g fill="#ffffff" fill-opacity="1"><g transform="translate(54.111551, 89.863357)"><g><path d="M 0.703125 -2.25 L 0.28125 -2.25 L 0.28125 0 L 1.765625 0 L 1.703125 -0.328125 L 0.703125 -0.328125 Z M 0.703125 -2.25 "/></g></g></g><g fill="#ffffff" fill-opacity="1"><g transform="translate(55.914925, 89.863357)"><g><path d="M 0.703125 -2.25 L 0.28125 -2.25 L 0.28125 0 L 1.765625 0 L 1.703125 -0.328125 L 0.703125 -0.328125 Z M 0.703125 -2.25 "/></g></g></g><g fill="#ffffff" fill-opacity="1"><g transform="translate(57.718299, 89.863357)"><g/></g></g><g fill="#ffffff" fill-opacity="1"><g transform="translate(58.464181, 89.863357)"><g><path d="M 0.46875 0 L 0.65625 -0.53125 L 1.515625 -0.53125 L 1.71875 0.03125 L 2.15625 -0.03125 L 1.28125 -2.25 L 0.90625 -2.25 L 0.03125 0 Z M 1.078125 -1.65625 L 1.390625 -0.875 L 0.78125 -0.875 Z M 1.078125 -1.65625 "/></g></g></g><g fill="#ffffff" fill-opacity="1"><g transform="translate(60.648782, 89.863357)"><g><path d="M 0.953125 -0.78125 C 1.117188 -0.78125 1.269531 -0.804688 1.40625 -0.859375 C 1.550781 -0.921875 1.664062 -1.003906 1.75 -1.109375 C 1.832031 -1.222656 1.875 -1.363281 1.875 -1.53125 C 1.875 -1.769531 1.789062 -1.945312 1.625 -2.0625 C 1.46875 -2.1875 1.253906 -2.25 0.984375 -2.25 L 0.28125 -2.25 L 0.28125 0 L 0.703125 0 L 0.703125 -0.78125 Z M 0.96875 -1.890625 C 1.125 -1.890625 1.238281 -1.859375 1.3125 -1.796875 C 1.382812 -1.742188 1.421875 -1.644531 1.421875 -1.5 C 1.410156 -1.382812 1.363281 -1.296875 1.28125 -1.234375 C 1.207031 -1.171875 1.109375 -1.140625 0.984375 -1.140625 L 0.703125 -1.140625 L 0.703125 -1.890625 Z M 0.96875 -1.890625 "/></g></g></g><g fill="#ffffff" fill-opacity="1"><g transform="translate(62.611279, 89.863357)"><g><path d="M 0.953125 -0.78125 C 1.117188 -0.78125 1.269531 -0.804688 1.40625 -0.859375 C 1.550781 -0.921875 1.664062 -1.003906 1.75 -1.109375 C 1.832031 -1.222656 1.875 -1.363281 1.875 -1.53125 C 1.875 -1.769531 1.789062 -1.945312 1.625 -2.0625 C 1.46875 -2.1875 1.253906 -2.25 0.984375 -2.25 L 0.28125 -2.25 L 0.28125 0 L 0.703125 0 L 0.703125 -0.78125 Z M 0.96875 -1.890625 C 1.125 -1.890625 1.238281 -1.859375 1.3125 -1.796875 C 1.382812 -1.742188 1.421875 -1.644531 1.421875 -1.5 C 1.410156 -1.382812 1.363281 -1.296875 1.28125 -1.234375 C 1.207031 -1.171875 1.109375 -1.140625 0.984375 -1.140625 L 0.703125 -1.140625 L 0.703125 -1.890625 Z M 0.96875 -1.890625 "/></g></g></g></svg>